<svg xmlns="http://www.w3.org/2000/svg" viewBox="0 0 338.72 316.06"><defs><style>.cls-1{fill:none;}.cls-2{fill:#f34b1f;stroke:#f34b1f;stroke-miterlimit:10;}</style></defs><g id="레이어_2" data-name="레이어 2"><g id="레이어_1-2" data-name="레이어 1"><rect class="cls-1" x="13.75" y="292.29" width="10.26" height="10.26"/><rect class="cls-1" x="314.71" y="13.52" width="10.26" height="10.26"/><rect class="cls-1" x="314.71" y="292.29" width="10.26" height="10.26"/><rect class="cls-2" x="261.05" y="0.5" width="64.99" height="1.07"/><rect class="cls-2" x="337.16" y="12.45" width="1.07" height="291.16"/><path class="cls-2" d="M332.89,12.45H326V5.83h-65V6.89H325v5.56H313.65V24.84H326V13.52h5.8v289H326V291.23H313.65v12.38H325v5.56H13.75v-5.56H25.07V291.23H12.69v11.32H6.89V271.37H5.83v32.24h6.86v6.63H326v-6.63h6.86ZM325,23.77H314.71V13.52H325ZM13.75,292.29H24v10.26H13.75ZM325,302.55H314.71V292.29H325Z"/><polygon class="cls-2" points="109.71 314.5 12.69 314.5 12.69 315.56 109.71 315.56 229.01 315.56 326.03 315.56 326.03 314.5 229.01 314.5 109.71 314.5"/><rect class="cls-2" x="0.5" y="271.37" width="1.07" height="32.24"/></g></g></svg>