<svg xmlns="http://www.w3.org/2000/svg" viewBox="0 0 64.59 24.97"><defs><style>.cls-1{font-size:11px;font-family:TmonMonsoriBlack, TmonMonsori;}.cls-1,.cls-3{fill:#333;}.cls-2{fill:#ef2900;}</style></defs><g id="레이어_2" data-name="레이어 2"><g id="레이어_1-2" data-name="레이어 1"><text class="cls-1" transform="translate(30.58 16.44)">ENG</text><polygon class="cls-2" points="61.09 15.23 64.59 11.23 57.59 11.23 61.09 15.23"/><path class="cls-3" d="M12.53.06,12.46,0l-.08.06a12.46,12.46,0,1,0,.15,0ZM21.85,8H17.27a15.18,15.18,0,0,0-2.52-5.64A10.47,10.47,0,0,1,21.85,8Zm1.06,4.55a10.35,10.35,0,0,1-.37,2.74h-4.9a20.58,20.58,0,0,0,.19-2.62,19.5,19.5,0,0,0-.2-2.67h4.95A10.24,10.24,0,0,1,22.91,12.51ZM12.46,22.59a12.14,12.14,0,0,1-2.79-5.34h5.57A12.23,12.23,0,0,1,12.46,22.59ZM9.28,15.25a18.79,18.79,0,0,1-.19-2.62A19.29,19.29,0,0,1,9.28,10h6.35a19.27,19.27,0,0,1,.2,2.67,18.78,18.78,0,0,1-.2,2.62ZM2,12.51A10.24,10.24,0,0,1,2.33,10h5a21.24,21.24,0,0,0-.19,2.67,20.58,20.58,0,0,0,.18,2.62H2.37A10.78,10.78,0,0,1,2,12.51ZM15.23,8H9.69a11.86,11.86,0,0,1,2.77-5.3A12.06,12.06,0,0,1,15.23,8ZM10.16,2.32A15.51,15.51,0,0,0,7.64,8H3.06A10.47,10.47,0,0,1,10.16,2.32Zm-7,14.93H7.63A15.58,15.58,0,0,0,10,22.65,10.49,10.49,0,0,1,3.14,17.25ZM15,22.65a15.58,15.58,0,0,0,2.32-5.4h4.49A10.46,10.46,0,0,1,15,22.65Z"/></g></g></svg>