<svg xmlns="http://www.w3.org/2000/svg" viewBox="0 0 35.71 44.13"><defs><style>.cls-1{font-size:11px;font-family:TmonMonsoriBlack, TmonMonsori;}.cls-1,.cls-3{fill:#333;}.cls-2{fill:#ef2900;}</style></defs><g id="레이어_2" data-name="레이어 2"><g id="kimAca"><text class="cls-1" transform="translate(1.7 40.09)">ENG</text><polygon class="cls-2" points="32.21 38.88 35.71 34.88 28.71 34.88 32.21 38.88"/><path class="cls-3" d="M13.26,26.55h-.52A13.25,13.25,0,0,1,3.67,4.14,13.16,13.16,0,0,1,13.18,0l.06,0h0A13.35,13.35,0,0,1,26.51,13.29,13.26,13.26,0,0,1,13.26,26.55Zm5.06-8.2a16.88,16.88,0,0,1-2.48,5.76l-.19.27L16,24.3a11.37,11.37,0,0,0,7.39-5.87l.09-.18H18.34Zm-15.18.08a11.36,11.36,0,0,0,7.4,5.87l.32.08-.19-.27A16.68,16.68,0,0,1,8.2,18.35l0-.1H3.05Zm7,0a13.16,13.16,0,0,0,3,5.8l.09.09.09-.09a13.27,13.27,0,0,0,3-5.8l0-.16h-6.3Zm8.54-7.85a21.75,21.75,0,0,1,.21,2.85,20.79,20.79,0,0,1-.2,2.8l0,.14h5.5l0-.09a11.35,11.35,0,0,0,.4-3,11.62,11.62,0,0,0-.35-2.77l0-.1H18.68Zm-9,0a20.68,20.68,0,0,0-.21,2.88,20,20,0,0,0,.21,2.83v.11h7.05v-.11A20,20,0,0,0,17,13.41a20.68,20.68,0,0,0-.21-2.88l0-.11h-7Zm-7.46,0a11.21,11.21,0,0,0-.36,2.77,11.37,11.37,0,0,0,.41,3l0,.09h5.5l0-.14a22.58,22.58,0,0,1-.2-2.8,21.87,21.87,0,0,1,.21-2.85l0-.14H2.28ZM15.62,2.41a16.46,16.46,0,0,1,2.69,6l0,.09h5.22l-.09-.18a11.29,11.29,0,0,0-7.71-6.12l-.33-.08Zm-2.45.21a13,13,0,0,0-3,5.75l0,.15h6.27l0-.15a13.09,13.09,0,0,0-3-5.75l-.09-.1Zm-2.41-.4A11.29,11.29,0,0,0,3.05,8.34L3,8.52H8.18l0-.09a16.28,16.28,0,0,1,2.68-6l.2-.27Z"/></g></g></svg>