<svg xmlns="http://www.w3.org/2000/svg" viewBox="0 0 46 55"><defs><style>.cls-1{font-size:11px;font-family:TmonMonsoriBlack, TmonMonsori;}.cls-1,.cls-3{fill:#333;}.cls-2{fill:#ef2900;}.cls-4{fill:none;}</style></defs><g id="레이어_2" data-name="레이어 2"><g id="kimAca"><text class="cls-1" transform="translate(11.43 48.35)">ENG</text><polygon class="cls-2" points="41.94 47.15 45.44 43.15 38.44 43.15 41.94 47.15"/><path class="cls-3" d="M23,34.81h-.52a13.26,13.26,0,0,1,.44-26.5l.07,0h0A13.35,13.35,0,0,1,36.24,21.55,13.25,13.25,0,0,1,23,34.81Zm5.06-8.2a17,17,0,0,1-2.47,5.77l-.19.27.32-.08A11.35,11.35,0,0,0,33.1,26.7l.1-.19H28.07Zm-15.17.09a11.35,11.35,0,0,0,7.39,5.87l.32.08-.19-.27a17,17,0,0,1-2.47-5.77l0-.1H12.78Zm7,0a13.11,13.11,0,0,0,3,5.8l.09.09.09-.09a13.11,13.11,0,0,0,3-5.8l0-.16h-6.3Zm8.55-7.84a21.39,21.39,0,0,1,.2,2.85,20.77,20.77,0,0,1-.2,2.79v.15h5.49l0-.1A10.9,10.9,0,0,0,34,18.78l0-.09H28.41Zm-9,0a20.75,20.75,0,0,0-.22,2.89,20.09,20.09,0,0,0,.21,2.83l0,.11h7l0-.11a20,20,0,0,0,.2-2.83,20.71,20.71,0,0,0-.21-2.89v-.1h-7Zm-7.47,0a10.9,10.9,0,0,0,0,5.74l0,.1h5.5l0-.15a22.4,22.4,0,0,1-.19-2.79,21.61,21.61,0,0,1,.2-2.85l0-.14H12Zm13.36-8.1a16.48,16.48,0,0,1,2.69,6l0,.1h5.23l-.09-.18a11.31,11.31,0,0,0-7.72-6.13l-.33-.07Zm-2.45.2a13.06,13.06,0,0,0-3,5.75l0,.16h6.28l0-.16a13.06,13.06,0,0,0-3-5.75L23,10.79Zm-2.4-.4a11.31,11.31,0,0,0-7.72,6.13l-.09.18h5.23l0-.1a16.64,16.64,0,0,1,2.68-6l.21-.27Z"/><rect class="cls-4" width="46" height="55"/></g></g></svg>