<svg xmlns="http://www.w3.org/2000/svg" viewBox="0 0 54.39 55"><defs><style>.cls-1,.cls-2{fill:#333;}.cls-2{font-size:11px;font-family:TmonMonsoriBlack, TmonMonsori;}.cls-3{fill:none;}</style></defs><g id="레이어_2" data-name="레이어 2"><g id="kimAca"><path class="cls-1" d="M37.54,30.33h0a10.75,10.75,0,0,0-3.24-6.92l-.06-.09a10.7,10.7,0,0,0-4.13-2.45,6.9,6.9,0,1,0-6.62,0,10.67,10.67,0,0,0-4.14,2.45s0,.06-.06.09A10.7,10.7,0,0,0,16,30.33h0v3.61a.93.93,0,0,0,1.86,0V32.19h0l0-1.07a8.92,8.92,0,0,1,7.09-8.72h0a7.55,7.55,0,0,1,.83-.13h.06a10,10,0,0,1,1.79,0h.06a7.55,7.55,0,0,1,.83.13h0a8.92,8.92,0,0,1,7.09,8.76l0,2.78a.93.93,0,1,0,1.86,0V30.33ZM21.74,14.82a5,5,0,1,1,5,5A5,5,0,0,1,21.74,14.82Z"/><text class="cls-2" transform="translate(10.04 48.36)">LOGIN</text><rect class="cls-3" width="54.39" height="55"/></g></g></svg>