<svg xmlns="http://www.w3.org/2000/svg" viewBox="0 0 34.94 44.47"><defs><style>.cls-1,.cls-2{fill:#333;}.cls-2{font-size:11px;font-family:TmonMonsoriBlack, TmonMonsori;}</style></defs><g id="레이어_2" data-name="레이어 2"><g id="레이어_1-2" data-name="레이어 1"><path class="cls-1" d="M27.5,22.41h0a10.75,10.75,0,0,0-3.24-6.92s0-.07-.06-.09A10.7,10.7,0,0,0,20,13a6.9,6.9,0,1,0-6.62,0A10.67,10.67,0,0,0,9.28,15.4s0,.06-.06.09A10.7,10.7,0,0,0,6,22.41h0V26A.93.93,0,0,0,7.8,26V24.27h0l0-1.07a8.92,8.92,0,0,1,7.09-8.72h0a7.55,7.55,0,0,1,.83-.13h.06a10,10,0,0,1,1.79,0h.06a7.55,7.55,0,0,1,.83.13h0a8.92,8.92,0,0,1,7.09,8.76l0,2.78a.93.93,0,0,0,1.86,0V22.41ZM11.7,6.9a5,5,0,1,1,5,5A5,5,0,0,1,11.7,6.9Z"/><text class="cls-2" transform="translate(0 40.44)">LOGIN</text></g></g></svg>