<svg xmlns="http://www.w3.org/2000/svg" viewBox="0 0 66.13 55"><defs><style>.cls-1,.cls-2{fill:#333;}.cls-2{font-size:11px;font-family:TmonMonsoriBlack, TmonMonsori;}.cls-3{fill:none;}</style></defs><g id="레이어_2" data-name="레이어 2"><g id="kimAca"><path class="cls-1" d="M39.43,24.84a.92.92,0,0,0,0-1.32,10.88,10.88,0,0,0-4.13-2.45,6.89,6.89,0,1,0-6.61,0,10.77,10.77,0,0,0-7.44,9.46h0v3.61a.94.94,0,0,0,1.87,0V32.4h0l0-.94v-.13a8.92,8.92,0,0,1,15.07-6.46A.92.92,0,0,0,39.43,24.84ZM26.94,15a5,5,0,1,1,5,5A5,5,0,0,1,26.94,15Z"/><path class="cls-1" d="M48.14,29.09H44.69v-3.3a.93.93,0,1,0-1.86,0v3.3H39.48a.93.93,0,0,0,0,1.86h3.35v3.31a.93.93,0,0,0,1.86,0V31h3.45a.93.93,0,1,0,0-1.86Z"/><text class="cls-2" transform="translate(13.46 48.36)">SIGN IN</text><rect class="cls-3" width="66.13" height="55"/></g></g></svg>