<svg xmlns="http://www.w3.org/2000/svg" viewBox="0 0 42.45 44.27"><defs><style>.cls-1,.cls-2{fill:#333;}.cls-2{font-size:11px;font-family:TmonMonsoriBlack, TmonMonsori;}</style></defs><g id="레이어_2" data-name="레이어 2"><g id="레이어_1-2" data-name="레이어 1"><path class="cls-1" d="M26,16.71a.93.93,0,0,0,0-1.31A10.63,10.63,0,0,0,21.82,13a6.9,6.9,0,1,0-6.61,0,10.8,10.8,0,0,0-7.45,9.46h0V26a.93.93,0,1,0,1.86,0V24.27h0V23.2a8.92,8.92,0,0,1,15.07-6.45A.93.93,0,0,0,26,16.71ZM13.48,6.9a5,5,0,1,1,5,5A5,5,0,0,1,13.48,6.9Z"/><path class="cls-1" d="M34.69,21H31.24v-3.3a.94.94,0,0,0-1.87,0V21H26a.94.94,0,0,0,0,1.87h3.35v3.3a.94.94,0,0,0,1.87,0v-3.3h3.45a.94.94,0,0,0,0-1.87Z"/><text class="cls-2" transform="translate(0 40.23)">SIGN IN</text></g></g></svg>